<svg height="480pt" viewBox="-43 0 480 480.37304" width="480pt" xmlns="http://www.w3.org/2000/svg"><path d="m360.960938 291.511719h-.054688c45.882812-79.445313 28.101562-180.367188-42.175781-239.339844-70.277344-58.976563-172.753907-58.976563-243.03125 0-70.277344 58.972656-88.058594 159.894531-42.175781 239.339844l.191406.28125c4.394531 7.574219 9.3125 14.835937 14.71875 21.726562l119.402344 141.847657h.152343c8.46875 8.472656 12 16.984374 29.496094 16.984374s24.796875-12.273437 29.496094-16.984374h.148437l119.523438-142.640626c5.074218-6.539062 9.710937-13.410156 13.886718-20.558593zm0 0" fill="#005e9c"/><path d="m353.210938 196.167969c0 86.15625-69.84375 156-156 156s-156-69.84375-156-156 69.84375-156 156-156 156 69.84375 156 156zm0 0" fill="#168fba"/><path d="m197.210938 270.992188 69.214843 25.175781-2.015625-75.105469 44.800782-59.542969-70.472657-21.246093-41.527343-61.976563-41.527344 61.976563-70.472656 21.246093 44.800781 59.542969-2.015625 75.105469zm0 0" fill="#fecf2c"/><path d="m203.859375 73.847656c-1.570313-2.09375-4.03125-3.328125-6.648437-3.328125-2.617188 0-5.082032 1.234375-6.648438 3.328125l-39.9375 59.59375-67.726562 20.421875c-2.503907.757813-4.480469 2.6875-5.292969 5.171875s-.359375 5.210938 1.214843 7.300782l43.117188 57.3125-1.941406 72.304687c-.074219 2.648437 1.167968 5.160156 3.320312 6.710937 2.144532 1.550782 4.921875 1.933594 7.40625 1.015626l66.488282-24.167969 66.488281 24.167969c.871093.324218 1.796875.488281 2.726562.488281 2.160157 0 4.230469-.871094 5.734375-2.417969 1.507813-1.546875 2.324219-3.640625 2.265625-5.796875l-1.941406-72.304687 43.117187-57.3125c1.574219-2.089844 2.027344-4.816407 1.214844-7.300782s-2.789062-4.414062-5.292968-5.171875l-67.730469-20.421875zm54.160156 142.398438c-1.089843 1.449218-1.652343 3.222656-1.601562 5.035156l1.703125 63.34375-58.167969-21.152344c-1.765625-.644531-3.703125-.644531-5.46875 0l-58.167969 21.152344 1.695313-63.335938c.050781-1.8125-.511719-3.585937-1.601563-5.03125l-37.902344-50.402343 59.503907-17.917969c1.769531-.535156 3.304687-1.664062 4.335937-3.203125l34.863282-52.0625 34.886718 52.054687c1.03125 1.539063 2.566406 2.667969 4.335938 3.203126l59.488281 17.933593zm0 0"/><path d="m197.210938 32.167969c-90.574219 0-164 73.425781-164 164s73.425781 164 164 164c90.574218 0 164-73.425781 164-164-.101563-90.53125-73.46875-163.898438-164-164zm0 312c-81.738282 0-148-66.261719-148-148s66.261718-148 148-148c81.738281 0 148 66.261719 148 148-.09375 81.699219-66.300782 147.90625-148 148zm0 0"/><path d="m197.210938 0c-70.390626-.015625-135.441407 37.535156-170.636719 98.496094-35.195313 60.960937-35.183594 136.070312.027343 197.023437l.167969.289063c4.636719 7.972656 9.820313 15.613281 15.519531 22.863281l119.425782 141.839844c.394531.464843.847656.882812 1.34375 1.242187 1.183594 1.230469 2.273437 2.445313 3.320312 3.628906 7.203125 9.890626 18.882813 15.503907 31.105469 14.953126 13.070313-.148438 25.3125-6.433594 33.054687-16.96875.496094-.566407.953126-1.101563 1.382813-1.597657.496094-.371093.945313-.792969 1.34375-1.265625l119.707031-142.886718c5.199219-6.691407 9.953125-13.71875 14.230469-21.03125l.414063-.632813c.269531-.402344.5-.828125.691406-1.273437 34.824218-60.976563 34.558594-135.878907-.699219-196.605469-35.257813-60.726563-100.179687-98.089844-170.398437-98.074219zm156.800781 287.503906-.226563.425782-.117187.175781c-3.945313 6.761719-8.328125 13.265625-13.113281 19.460937l-118.734376 141.671875c-.167968.144531-.335937.296875-.496093.457031-.875.871094-1.816407 1.953126-2.875 3.199219-4.71875 6.992188-12.53125 11.269531-20.964844 11.472657-7.660156.546874-15.007813-3.136719-19.152344-9.597657-1.464843-1.601562-2.984375-3.34375-4.6875-5.042969-.15625-.152343-.320312-.300781-.488281-.4375l-118.449219-140.703124c-5.175781-6.601563-9.886719-13.550782-14.105469-20.800782v-.074218l-.109374-.199219c-43.945313-76.082031-26.914063-172.734375 40.390624-229.214844 67.300782-56.476563 165.441407-56.476563 232.746094 0 67.300782 56.480469 84.332032 153.132813 40.390625 229.214844zm0 0"/></svg>