<?xml version="1.0"?>
<svg xmlns="http://www.w3.org/2000/svg" xmlns:xlink="http://www.w3.org/1999/xlink" xmlns:svgjs="http://svgjs.com/svgjs" version="1.1" width="512" height="512" x="0" y="0" viewBox="0 0 64 64" style="enable-background:new 0 0 512 512" xml:space="preserve" class=""><g><g xmlns="http://www.w3.org/2000/svg" id="Filled_Outline" data-name="Filled Outline"><path d="m53 24.267c0 18.366-21 36.733-21 36.733s-21-18.367-21-36.733a21 21 0 1 1 42 0z" fill="#f7ff00" data-original="#ff9800" style="" class=""/><circle cx="32" cy="24" fill="#eeeeee" r="17" data-original="#eeeeee" style="" class=""/><path d="m24 15h4v7h8v-7h4v18h-4v-7h-8v7h-4z" fill="#f7ff00" data-original="#ff9800" style="" class=""/><path d="m32 62a1 1 0 0 1 -.658-.247 86.5 86.5 0 0 1 -10.637-11.626c-7.105-9.318-10.705-18.019-10.705-25.86a22 22 0 1 1 44 0c0 7.841-3.6 16.542-10.7 25.86a86.5 86.5 0 0 1 -10.642 11.626 1 1 0 0 1 -.658.247zm0-58a20.158 20.158 0 0 0 -20 20.267c0 15.88 16.473 32.091 20 35.379 3.527-3.288 20-19.5 20-35.379a20.158 20.158 0 0 0 -20-20.267z" fill="#000000" data-original="#000000" style="" class=""/><path d="m32 42a18 18 0 1 1 18-18 18.021 18.021 0 0 1 -18 18zm0-34a16 16 0 1 0 16 16 16.019 16.019 0 0 0 -16-16z" fill="#000000" data-original="#000000" style="" class=""/><path d="m40 34h-4a1 1 0 0 1 -1-1v-6h-6v6a1 1 0 0 1 -1 1h-4a1 1 0 0 1 -1-1v-18a1 1 0 0 1 1-1h4a1 1 0 0 1 1 1v6h6v-6a1 1 0 0 1 1-1h4a1 1 0 0 1 1 1v18a1 1 0 0 1 -1 1zm-3-2h2v-16h-2v6a1 1 0 0 1 -1 1h-8a1 1 0 0 1 -1-1v-6h-2v16h2v-6a1 1 0 0 1 1-1h8a1 1 0 0 1 1 1z" fill="#000000" data-original="#000000" style="" class=""/></g></g></svg>
