<?xml version="1.0" encoding="iso-8859-1"?>
<!-- Generator: Adobe Illustrator 19.0.0, SVG Export Plug-In . SVG Version: 6.00 Build 0)  -->
<svg version="1.1" id="Capa_1" xmlns="http://www.w3.org/2000/svg" xmlns:xlink="http://www.w3.org/1999/xlink" x="0px" y="0px"
	 viewBox="0 0 512 512" style="enable-background:new 0 0 512 512;" xml:space="preserve">
<path style="fill:#87DCFA;" d="M510.455,257.545C510.455,397.184,397.464,512,256,512C114.903,512,1.545,397.53,1.545,257.545
	C1.545,117.012,115.468,3.089,256,3.089C396.794,3.089,510.455,117.253,510.455,257.545z"/>
<g>
	<path style="fill:#EBE1DC;" d="M317.438,32.149v103.755c0,3.037-1.644,5.718-4.094,7.163c-1.246,0.743-2.691,1.173-4.241,1.173
		c-4.587,0-8.336-3.749-8.336-8.336V32.149c0-4.587,3.749-8.336,8.336-8.336c1.55,0,2.995,0.429,4.241,1.173
		c0.597,0.356,1.152,0.785,1.644,1.278C316.506,27.771,317.438,29.855,317.438,32.149z"/>
	<path style="fill:#EBE1DC;" d="M368.038,32.149v103.755c0,3.037-1.644,5.718-4.094,7.163c-1.246,0.743-2.691,1.173-4.241,1.173
		c-4.587,0-8.336-3.749-8.336-8.336V32.149c0-4.587,3.749-8.336,8.336-8.336c1.55,0,2.995,0.429,4.241,1.173
		c0.597,0.356,1.152,0.785,1.644,1.278C367.106,27.771,368.038,29.855,368.038,32.149z"/>
</g>
<g>
	<path style="fill:#FFF5F5;" d="M317.438,32.149v103.755c0,3.037-1.644,5.718-4.094,7.163c-2.45-1.445-4.095-4.126-4.095-7.163
		V32.149c0-3.037,1.644-5.718,4.095-7.163c0.597,0.356,1.152,0.785,1.644,1.278C316.506,27.771,317.438,29.855,317.438,32.149z"/>
	<path style="fill:#FFF5F5;" d="M368.038,32.149v103.755c0,3.037-1.644,5.718-4.094,7.163c-2.45-1.445-4.095-4.126-4.095-7.163
		V32.149c0-3.037,1.644-5.718,4.095-7.163c0.597,0.356,1.152,0.785,1.644,1.278C367.106,27.771,368.038,29.855,368.038,32.149z"/>
</g>
<path style="fill:#8278D2;" d="M463.824,192.839v201.604c0,3.728-0.251,7.393-0.743,10.985
	c-19.813,27.729-45.071,51.343-74.256,69.229h-0.01c-1.791,0.126-3.592,0.188-5.403,0.188h-98.027
	c-44.401,0-80.403-36.002-80.403-80.403V192.839c0-44.401,36.002-80.403,80.403-80.403h98.027
	C427.822,112.436,463.824,148.438,463.824,192.839z"/>
<path style="fill:#4B469B;" d="M391.663,16.619c0,4.576-1.874,8.723-4.88,11.739c-3.016,3.016-7.173,4.88-11.739,4.88h-81.293
	c-9.131,0-16.608-7.477-16.608-16.619c0-4.576,1.874-8.723,4.88-11.739C285.028,1.864,289.185,0,293.751,0h81.293
	c8.199,0,15.069,6.021,16.388,13.865C391.579,14.755,391.663,15.676,391.663,16.619z"/>
<path style="fill:#5F55AF;" d="M391.432,13.865h-80.717c-8.199,0-15.059-6.021-16.378-13.865h80.707
	C383.243,0,390.113,6.021,391.432,13.865z"/>
<path style="fill:#7369C3;" d="M416.722,229.281v216.987c0,3.655-0.743,7.131-2.105,10.283
	c-7.131,5.697-14.566,11.016-22.305,15.917c-0.618,0.052-1.236,0.073-1.864,0.073H285.384c-44.401,0-80.403-36.002-80.403-80.403
	V202.997h185.467C404.952,202.997,416.722,214.767,416.722,229.281z"/>
<g>
	<path style="fill:#32285F;" d="M274.036,153.688L274.036,153.688c-5.056,0-9.191,4.136-9.191,9.191v261.524
		c0,5.055,4.136,9.191,9.191,9.191l0,0c5.055,0,9.191-4.136,9.191-9.191V162.879C283.227,157.823,279.091,153.688,274.036,153.688z"
		/>
	<path style="fill:#32285F;" d="M334.402,153.688c-5.056,0-9.191,4.136-9.191,9.191v261.524c0,5.055,4.136,9.191,9.191,9.191
		c5.055,0,9.191-4.136,9.191-9.191V162.879C343.593,157.823,339.457,153.688,334.402,153.688z"/>
	<path style="fill:#32285F;" d="M394.768,153.688c-5.056,0-9.191,4.136-9.191,9.191v261.524c0,5.055,4.136,9.191,9.191,9.191
		c5.055,0,9.191-4.136,9.191-9.191V162.879C403.959,157.823,399.824,153.688,394.768,153.688z"/>
</g>
<path style="fill:#AA6432;" d="M242.347,180.834h-99.868c-10.703,0-19.387,8.683-19.387,19.379v41.251h20.827v-35.145
	c0-0.343,0.023-0.686,0.061-1.014c0.504-4.231,4.093-7.509,8.462-7.509h79.94c4.368,0,7.959,3.278,8.462,7.509
	c0.038,0.328,0.061,0.671,0.061,1.014v35.145h20.827v-41.251C261.732,189.517,253.05,180.834,242.347,180.834z"/>
<g>
	<path style="fill:#965028;" d="M123.092,205.306h20.888c-0.038,0.328-0.061,0.671-0.061,1.014v35.145h-20.827V205.306z"/>
	<path style="fill:#965028;" d="M261.732,205.306v36.158h-20.827v-35.145c0-0.343-0.023-0.686-0.061-1.014L261.732,205.306
		L261.732,205.306z"/>
</g>
<path style="fill:#3E3D42;" d="M154.727,474.919c0,5.257-1.11,10.252-3.1,14.776c-4.398-1.969-8.713-4.074-12.964-6.294
	c-5.163-2.67-10.221-5.529-15.163-8.556c-7.582-4.639-14.901-9.655-21.928-15.038c-3.822-2.911-7.55-5.938-11.194-9.069
	c6.733-7.686,16.619-12.535,27.635-12.535C138.286,438.205,154.727,454.646,154.727,474.919z"/>
<path style="fill:#1D1D1F;" d="M140.338,474.919c0,3.005-0.597,5.875-1.675,8.482c-5.163-2.67-10.221-5.529-15.163-8.556
	c-7.582-4.639-14.901-9.655-21.928-15.038c4.074-4.44,9.938-7.215,16.441-7.215C130.338,452.593,140.338,462.583,140.338,474.919z"
	/>
<circle style="fill:#3E3D42;" cx="267.964" cy="474.919" r="36.714"/>
<path style="fill:#2D2D2D;" d="M290.295,474.919c0,8.262-4.482,15.477-11.152,19.342c-3.288,1.906-7.1,2.995-11.173,2.995
	c-12.336,0-22.336-10.001-22.336-22.336c0-12.336,10.001-22.326,22.336-22.326c4.074,0,7.885,1.089,11.173,2.984
	C285.813,459.442,290.295,466.657,290.295,474.919z"/>
<path style="fill:#F2C230;" d="M377.086,252.728v198.389c0,13.1-10.629,23.729-23.729,23.729H123.5
	C65.59,439.451,23.033,381.563,7.744,313.559v-60.831c0-13.1,10.629-23.729,23.729-23.729h321.884
	C366.457,228.998,377.086,239.627,377.086,252.728z"/>
<path style="fill:#F7D139;" d="M377.086,252.728v183.833H75.162c-1.33-1.34-2.639-2.691-3.927-4.053
	c-8.974-9.477-17.226-19.645-24.661-30.421V228.998h306.783C366.457,228.998,377.086,239.627,377.086,252.728z"/>
<path style="fill:#FF7251;" d="M353.444,291.916l-56.745,20.127c-4.056,1.439-8.509-0.683-9.948-4.738l-12.05-33.973
	c-1.439-4.056,0.683-8.509,4.738-9.948l56.745-20.127c4.056-1.439,8.509,0.683,9.948,4.739l12.05,33.973
	C359.621,286.024,357.499,290.478,353.444,291.916z"/>
<path style="fill:#6092E0;" d="M220.316,410.278l-59.69,7.891c-4.266,0.564-8.182-2.437-8.746-6.703l-4.724-35.735
	c-0.564-4.266,2.437-8.182,6.703-8.746l59.69-7.891c4.266-0.564,8.182,2.437,8.746,6.703l4.724,35.735
	C227.583,405.798,224.581,409.713,220.316,410.278z"/>
<path style="fill:#82CD64;" d="M84.253,327.628L25.42,314.832c-4.204-0.914-6.873-5.065-5.957-9.27l7.661-35.223
	c0.914-4.204,5.065-6.873,9.27-5.957l58.833,12.797c4.204,0.914,6.873,5.065,5.957,9.27l-7.661,35.223
	C92.608,325.875,88.458,328.543,84.253,327.628z"/>
<g>
	<path style="fill:#B9783D;" d="M93.466,228.998v224.338c-1.037-0.848-2.063-1.717-3.089-2.597
		c-2.723-2.335-5.403-4.733-8.021-7.184c-2.45-2.283-4.848-4.618-7.194-6.995c-1.33-1.34-2.639-2.691-3.927-4.053v-203.51H93.466z"
		/>
	<rect x="291.358" y="228.998" style="fill:#B9783D;" width="22.232" height="245.848"/>
</g>
<g>
	<path style="fill:#D29650;" d="M93.466,228.998v224.338c-1.037-0.848-2.063-1.717-3.089-2.597
		c-2.723-2.335-5.403-4.733-8.021-7.184V228.998H93.466z"/>
	<rect x="302.469" y="228.998" style="fill:#D29650;" width="11.115" height="245.848"/>
</g>
<g>
</g>
<g>
</g>
<g>
</g>
<g>
</g>
<g>
</g>
<g>
</g>
<g>
</g>
<g>
</g>
<g>
</g>
<g>
</g>
<g>
</g>
<g>
</g>
<g>
</g>
<g>
</g>
<g>
</g>
</svg>
