<?xml version="1.0"?>
<svg xmlns="http://www.w3.org/2000/svg" xmlns:xlink="http://www.w3.org/1999/xlink" xmlns:svgjs="http://svgjs.com/svgjs" version="1.1" width="512" height="512" x="0" y="0" viewBox="0 0 480 480.15391" style="enable-background:new 0 0 512 512" xml:space="preserve" class=""><g><path xmlns="http://www.w3.org/2000/svg" d="m360.078125 432.152344c0-22.089844-78.800781-40-176-40-97.203125 0-176 17.910156-176 40 0 22.09375 78.796875 40 176 40 97.199219 0 176-17.90625 176-40zm0 0" fill="#adabac" data-original="#adabac" style="" class=""/><path xmlns="http://www.w3.org/2000/svg" d="m168.078125 272.152344h32v152c0 8.839844-7.164063 16-16 16s-16-7.160156-16-16zm0 0" fill="#494342" data-original="#494342" style="" class=""/><path xmlns="http://www.w3.org/2000/svg" d="m320.078125 144.152344c0 75.113281-60.890625 136-136 136-75.113281 0-136-60.886719-136-136 0-75.109375 60.886719-136 136-136 75.109375 0 136 60.890625 136 136zm0 0" fill="#ebff00" data-original="#ee3446" style="" class=""/><path xmlns="http://www.w3.org/2000/svg" d="m152.078125 216.152344c-4.246094.007812-8.316406-1.679688-11.3125-4.6875l-48-48 22.625-22.621094 36.6875 36.679688 100.6875-100.679688 22.625 22.621094-112 112c-2.996094 3.007812-7.070313 4.695312-11.3125 4.6875zm0 0" fill="#ff0000" data-original="#ad2943" style="" class=""/><path xmlns="http://www.w3.org/2000/svg" d="m281.046875 105.121094c3.121094-3.125 3.121094-8.1875 0-11.3125l-22.625-22.621094c-3.125-3.125-8.1875-3.125-11.3125 0l-95.03125 95.023438-31.03125-31.023438c-3.125-3.125-8.191406-3.125-11.3125 0l-22.625 22.621094c-3.125 3.125-3.125 8.1875 0 11.3125l48 48c9.371094 9.375 24.570313 9.375 33.945313 0zm-134.625 100.6875-42.34375-42.34375 11.3125-11.3125 31.03125 31.027344c3.125 3.121093 8.1875 3.121093 11.3125 0l95.03125-95.027344 11.3125 11.3125-106.34375 106.351562c-3.171875 3.015625-8.148437 3.011719-11.3125-.007812zm0 0" fill="#050606" data-original="#000000" style="" class=""/><path xmlns="http://www.w3.org/2000/svg" d="m.078125 432.152344c0 37.96875 120.359375 48 184 48s184-10.03125 184-48c0-33.597656-97.066406-45.597656-160-47.613282v-98.554687c73.8125-12.476563 125.753906-79.429687 119.496094-154.027344-6.261719-74.597656-68.636719-131.957031-143.496094-131.957031-74.863281 0-137.238281 57.359375-143.496094 131.957031-6.261719 74.597657 45.679688 141.550781 119.496094 154.027344v98.554687c-62.9375 2.015626-160 14.015626-160 47.613282zm56-288c-.042969-68.742188 54.222656-125.242188 122.914063-127.976563 68.6875-2.730469 127.269531 49.285157 132.6875 117.8125 5.417968 68.53125-44.265626 129.101563-112.53125 137.199219-1.6875.199219-3.199219.308594-4.800782.445312-3.40625.273438-6.824218.519532-10.292968.519532-3.472657 0-6.890626-.246094-10.296876-.519532-1.601562-.136718-3.082031-.246093-4.800781-.445312-64.332031-7.714844-112.78125-62.242188-112.878906-127.035156zm136 143.738281v136.261719c0 4.417968-3.582031 8-8 8s-8-3.582032-8-8v-136.261719c5.328125.351563 10.671875.351563 16 0zm-8 160.261719c13.253906 0 24-10.742188 24-24v-23.621094c94.582031 2.925781 144 21.878906 144 31.621094 0 10.859375-59.296875 32-168 32-108.707031 0-168-21.140625-168-32 0-9.742188 49.414063-28.695313 144-31.621094v23.621094c0 13.257812 10.742187 24 24 24zm0 0" fill="#050606" data-original="#000000" style="" class=""/></g></svg>
