<svg height="512pt" viewBox="0 0 512 512" width="512pt" xmlns="http://www.w3.org/2000/svg" xmlns:xlink="http://www.w3.org/1999/xlink"><linearGradient id="a" gradientUnits="userSpaceOnUse" x1="0" x2="512" y1="256" y2="256"><stop offset="0" stop-color="#00f38d"/><stop offset="1" stop-color="#009eff"/></linearGradient><path d="m512 256c0 141.386719-114.613281 256-256 256s-256-114.613281-256-256 114.613281-256 256-256 256 114.613281 256 256zm0 0" fill="url(#a)"/><g fill="#fff"><path d="m387.601562 167.042969c23.078126 0 41.855469-18.777344 41.855469-41.859375 0-23.078125-18.777343-41.855469-41.855469-41.855469-23.082031 0-41.859374 18.777344-41.859374 41.855469 0 23.082031 18.777343 41.859375 41.859374 41.859375zm0-53.714844c6.539063 0 11.855469 5.320313 11.855469 11.855469 0 6.539062-5.316406 11.859375-11.855469 11.859375-6.539062 0-11.859374-5.320313-11.859374-11.859375 0-6.535156 5.320312-11.855469 11.859374-11.855469zm0 0"/><path d="m124.398438 167.042969c23.082031 0 41.859374-18.777344 41.859374-41.859375 0-23.078125-18.777343-41.855469-41.859374-41.855469-23.078126 0-41.855469 18.777344-41.855469 41.855469 0 23.082031 18.777343 41.859375 41.855469 41.859375zm0-53.714844c6.539062 0 11.859374 5.320313 11.859374 11.855469 0 6.539062-5.320312 11.859375-11.859374 11.859375-6.535157 0-11.855469-5.320313-11.855469-11.859375 0-6.535156 5.320312-11.855469 11.855469-11.855469zm0 0"/><path d="m387.816406 176.65625c-.066406 0-.132812 0-.199218 0-28.960938 0-40.046876 21.964844-46.46875 41.117188-2.1875 6.527343-6.8125 20.414062-10.019532 30.054687h-13.128906v-29.3125c0-23.082031-18.777344-41.859375-41.855469-41.859375h-40.285156c-23.082031 0-41.859375 18.777344-41.859375 41.859375v29.3125h-13.125c-3.210938-9.640625-7.835938-23.527344-10.023438-30.054687-6.421874-19.152344-17.5-41.117188-46.46875-41.117188-.066406 0-.132812 0-.199218 0-22.960938.082031-41.640625 18.859375-41.640625 41.859375v73.183594c0 18.382812 11.917969 34.027343 28.429687 39.636719v.207031c.242188 0 .480469.023437.722656.035156 1.4375.460937 2.910157.847656 4.414063 1.152344 3.96875 1.917969 6.722656 5.972656 6.722656 10.671875v85.269531h30v-85.273437c0-3.386719-.417969-6.683594-1.179687-9.839844h13.707031c6.539063 0 11.855469 5.316406 11.855469 11.855468v83.257813h30v-83.257813c0-23.078124-18.777344-41.855468-41.855469-41.855468h-40.960937c-.242188 0-.480469-.023438-.71875-.039063-1.441407-.460937-2.914063-.84375-4.414063-1.148437-3.972656-1.921875-6.722656-5.976563-6.722656-10.671875v-73.1875c0-6.515625 5.269531-11.832031 11.742187-11.855469 5.789063-.042969 11.183594-.039062 18.121094 20.652344 3.527344 10.53125 13.417969 40.25 13.417969 40.25l3.414062 10.269531h193.523438l3.414062-10.265625s9.886719-29.722656 13.417969-40.253906c6.9375-20.695313 12.390625-20.683594 18.117188-20.652344 6.476562.023438 11.742187 5.339844 11.742187 11.855469v73.1875c0 4.699219-2.75 8.753906-6.71875 10.671875-1.503906.304687-2.976563.691406-4.414063 1.148437-.242187.015625-.476562.039063-.722656.039063h-40.285156c-23.082031 0-41.859375 18.777344-41.859375 41.855468v83.257813h30v-83.257813c0-6.535156 5.320313-11.855468 11.859375-11.855468h13.035156c-.761718 3.160156-1.179687 6.453125-1.179687 9.84375v85.269531h30v-85.273437c0-4.695313 2.753906-8.75 6.722656-10.667969 1.503906-.304688 2.976563-.691407 4.414063-1.152344.242187-.015625.480468-.035156.722656-.035156v-.207031c16.511718-5.613282 28.425781-21.253907 28.425781-39.636719v-73.1875c.003906-22.996094-18.675781-41.773438-41.636719-41.855469zm-163.816406 41.859375c0-6.539063 5.320312-11.859375 11.855469-11.859375h40.289062c6.535157 0 11.855469 5.320312 11.855469 11.859375v29.3125h-64zm0 0"/><path d="m256 167.042969c23.078125 0 41.855469-18.777344 41.855469-41.859375 0-23.078125-18.777344-41.855469-41.855469-41.855469s-41.855469 18.777344-41.855469 41.855469c0 23.082031 18.777344 41.859375 41.855469 41.859375zm0-53.714844c6.539062 0 11.855469 5.320313 11.855469 11.855469 0 6.539062-5.316407 11.859375-11.855469 11.859375s-11.855469-5.320313-11.855469-11.859375c0-6.535156 5.316407-11.855469 11.855469-11.855469zm0 0"/></g></svg>