<?xml version="1.0" encoding="iso-8859-1"?>
<!-- Generator: Adobe Illustrator 19.0.0, SVG Export Plug-In . SVG Version: 6.00 Build 0)  -->
<svg version="1.1" id="Capa_1" xmlns="http://www.w3.org/2000/svg" xmlns:xlink="http://www.w3.org/1999/xlink" x="0px" y="0px"
	 viewBox="0 0 512 512" style="enable-background:new 0 0 512 512;" xml:space="preserve">
<path style="fill:#1081E0;" d="M443.733,206.507c0,109.338-187.733,296.96-187.733,296.96S68.267,315.844,68.267,206.507
	S152.32,8.533,256,8.533S443.733,97.169,443.733,206.507z"/>
<circle style="fill:#FFFFFF;" cx="256" cy="196.267" r="145.067"/>
<path style="fill:#1081E0;" d="M273.067,110.933h-51.2H204.8V281.6h34.133v-68.267h34.133c28.271,0,51.2-22.921,51.2-51.2
	S301.338,110.933,273.067,110.933z M273.067,179.2h-34.133v-34.133h34.133c9.421,0,17.067,7.637,17.067,17.067
	C290.133,171.563,282.487,179.2,273.067,179.2z"/>
<g>
	<path style="fill:#4D007E;" d="M256,512c-2.185,0-4.369-0.836-6.033-2.492c-7.765-7.774-190.234-191.411-190.234-303.002
		C59.733,92.638,147.78,0,256,0s196.267,92.638,196.267,206.507c0,111.59-182.468,295.228-190.234,302.993
		C260.369,511.164,258.185,512,256,512z M256,17.067c-98.807,0-179.2,84.983-179.2,189.44c0,93.739,147.294,251.648,179.2,284.74
		c31.898-33.101,179.2-191.044,179.2-284.74C435.2,102.05,354.807,17.067,256,17.067z"/>
	<path style="fill:#4D007E;" d="M256,349.867c-84.693,0-153.6-68.907-153.6-153.6s68.907-153.6,153.6-153.6
		s153.6,68.907,153.6,153.6S340.693,349.867,256,349.867z M256,59.733c-75.29,0-136.533,61.252-136.533,136.533
		S180.71,332.8,256,332.8s136.533-61.252,136.533-136.533S331.29,59.733,256,59.733z"/>
	<path style="fill:#4D007E;" d="M256,512c-4.71,0-8.533-3.823-8.533-8.533v-76.8c0-4.71,3.823-8.533,8.533-8.533
		c4.71,0,8.533,3.823,8.533,8.533v76.8C264.533,508.177,260.71,512,256,512z"/>
	<path style="fill:#4D007E;" d="M273.067,187.733h-34.133c-4.71,0-8.533-3.823-8.533-8.533v-34.133c0-4.71,3.823-8.533,8.533-8.533
		h34.133c14.114,0,25.6,11.486,25.6,25.6C298.667,176.247,287.181,187.733,273.067,187.733z M247.467,170.667h25.6
		c4.71,0,8.533-3.831,8.533-8.533s-3.823-8.533-8.533-8.533h-25.6V170.667z"/>
	<path style="fill:#4D007E;" d="M238.933,290.133H204.8c-4.71,0-8.533-3.823-8.533-8.533V110.933c0-4.71,3.823-8.533,8.533-8.533
		h68.267c32.939,0,59.733,26.795,59.733,59.733s-26.795,59.733-59.733,59.733h-25.6V281.6
		C247.467,286.31,243.644,290.133,238.933,290.133z M213.333,273.067H230.4v-59.733c0-4.71,3.823-8.533,8.533-8.533h34.133
		c23.526,0,42.667-19.14,42.667-42.667s-19.14-42.667-42.667-42.667h-59.733V273.067z"/>
	<path style="fill:#4D007E;" d="M503.467,512h-34.133c-4.71,0-8.533-3.823-8.533-8.533c0-4.71,3.823-8.533,8.533-8.533h34.133
		c4.71,0,8.533,3.823,8.533,8.533C512,508.177,508.177,512,503.467,512z"/>
	<path style="fill:#4D007E;" d="M204.8,512H8.533C3.823,512,0,508.177,0,503.467c0-4.71,3.823-8.533,8.533-8.533H204.8
		c4.71,0,8.533,3.823,8.533,8.533C213.333,508.177,209.51,512,204.8,512z"/>
	<path style="fill:#4D007E;" d="M409.6,512H307.2c-4.71,0-8.533-3.823-8.533-8.533c0-4.71,3.823-8.533,8.533-8.533h102.4
		c4.71,0,8.533,3.823,8.533,8.533C418.133,508.177,414.31,512,409.6,512z"/>
</g>
<g>
</g>
<g>
</g>
<g>
</g>
<g>
</g>
<g>
</g>
<g>
</g>
<g>
</g>
<g>
</g>
<g>
</g>
<g>
</g>
<g>
</g>
<g>
</g>
<g>
</g>
<g>
</g>
<g>
</g>
</svg>
