<svg height="512" viewBox="0 0 64 64" width="512" xmlns="http://www.w3.org/2000/svg"><g id="piano-play-woman-music-chair"><path d="m61 31v8h-18v4h-16v-12z" fill="#806749"/><path d="m61 21v10h-22v-4-6h2 14z" fill="#fee9ab"/><path d="m61 21h-6l-14-14-4-4h6z" fill="#a78966"/><path d="m61 21h-3l-18-18h3z" fill="#806749"/><path d="m55 39h4v22h-4z" fill="#a78966"/><path d="m39 43h4v18h-4z" fill="#a78966"/><path d="m29 27h10v4h-10z" fill="#c0ab91"/><path d="m29 43h4v18h-4z" fill="#a78966"/><path d="m27 25v4h-12v6h-8v-8a2.006 2.006 0 0 1 2-2z" fill="#f072ae"/><path d="m27 25v2h-18a2.006 2.006 0 0 0 -2 2v-2a2.006 2.006 0 0 1 2-2z" fill="#ea348b"/><path d="m19 49h4v12h-4z" fill="#ffc477"/><path d="m23 43v6h-8v-2h-1v-4h-3a4 4 0 0 1 -4-4v-4h8v2h6a2.006 2.006 0 0 1 2 2z" fill="#a78966"/><path d="m19.41 5.59a1.955 1.955 0 0 1 .59 1.41 2.006 2.006 0 0 1 -2 2h-7v2a2 2 0 0 0 0 4l-2 10a2.006 2.006 0 0 0 -2 2v5h-4v-21a6 6 0 0 1 6-6h9a1.955 1.955 0 0 1 1.41.59z" fill="#ffcd00"/><path d="m17 13 2 4h-2v2a2.006 2.006 0 0 1 -2 2h-2v4h-4l2-10a2 2 0 0 1 0-4v-2h6z" fill="#ffc477"/><path d="m15 49v2h-4-4-4v-4h1 10 1z" fill="#c6c5ca"/><path d="m14 43v4h-10v-4h7z" fill="#898890"/><path d="m13 57v4h-8v-4h2 4z" fill="#c6c5ca"/><path d="m7 51h4v6h-4z" fill="#898890"/><path d="m20 7a2.015 2.015 0 0 1 -2 2h-2a2.015 2.015 0 0 0 2-2 2.006 2.006 0 0 0 -2-2h2a2.006 2.006 0 0 1 2 2z" fill="#ebbf00"/><path d="m15 17h2v2a2.006 2.006 0 0 1 -2 2h-2a2.006 2.006 0 0 0 2-2z" fill="#ffa733"/><path d="m19 17h-2l-2-4v-4h2v4z" fill="#ffa733"/><path d="m57 21h4v10h-4z" fill="#ffde55"/><path d="m57 31h4v8h-4z" fill="#6a563d"/><path d="m56 24h2v2h-2z"/><path d="m48 24h6v2h-6z"/><path d="m38 38h2v2h-2z"/><path d="m30 38h6v2h-6z"/><path d="m61.71 20.29-18-18a1.033 1.033 0 0 0 -.71-.29h-6a.987.987 0 0 0 -.92.62 1 1 0 0 0 .21 1.09l3.71 3.7v12.59h-1a1 1 0 0 0 -1 1v5h-9a1 1 0 0 0 -1 1v-2a1 1 0 0 0 -1-1h-13v-2h1a3.009 3.009 0 0 0 3-3v-1h1a1 1 0 0 0 .89-1.45l-1.89-3.79v-2.76a3 3 0 0 0 0-6h-9a7.008 7.008 0 0 0 -7 7v21a1 1 0 0 0 1 1h3v6a4.924 4.924 0 0 0 1.03 3h-3.03a1 1 0 0 0 -1 1v3a1 1 0 0 0 -1 1v4a1 1 0 0 0 1 1h3v4h-1a1 1 0 0 0 -1 1v4a1 1 0 0 0 1 1h8a1 1 0 0 0 1-1v-4a1 1 0 0 0 -1-1h-1v-4h3a1 1 0 0 0 1-1v-1h2v11a1 1 0 0 0 1 1h4a1 1 0 0 0 1-1v-22a3.009 3.009 0 0 0 -3-3h-5v-6h11a1 1 0 0 0 1-1v1h-1a1 1 0 0 0 -1 1v12a1 1 0 0 0 1 1h1v17a1 1 0 0 0 1 1h4a1 1 0 0 0 1-1v-17h4v17a1 1 0 0 0 1 1h4a1 1 0 0 0 1-1v-21h10v21a1 1 0 0 0 1 1h4a1 1 0 0 0 1-1v-21h1a1 1 0 0 0 1-1v-18a1.033 1.033 0 0 0 -.29-.71zm-44.71-4.29a1 1 0 0 0 -1 1v2a1 1 0 0 1 -1 1h-2a1 1 0 0 0 -1 1v3h-1.78l1.76-8.8a.99.99 0 0 0 -.21-.83.971.971 0 0 0 -.77-.37 1 1 0 0 1 0-2 1 1 0 0 0 1-1v-1h4v3a1 1 0 0 0 .11.45l1.27 2.55zm-11 11v4h-2v-20a5 5 0 0 1 5-5h9a1 1 0 0 1 0 2h-7a1 1 0 0 0 -1 1v1.17a3 3 0 0 0 -.17 5.59l-1.68 8.38a2.979 2.979 0 0 0 -2.15 2.86zm-1 17h8v2h-8zm7 16h-6v-2h6zm-4-4v-4h2v4zm6-6h-10v-2h10zm8 10h-2v-10h2zm-1-22a1 1 0 0 1 1 1v9h-6v-1a1 1 0 0 0 -1-1v-3a1 1 0 0 0 -1-1h-3a3.009 3.009 0 0 1 -3-3v-3h6v1a1 1 0 0 0 1 1zm5-10h-11a1 1 0 0 0 -1 1v5h-6v-7a1 1 0 0 1 1-1h17zm13.41-24h3.18l16 16h-3.18zm13.18 16h-10.59v-10.59zm-22.59 8h8v2h-8zm2 32h-2v-16h2zm10 0h-2v-16h2zm16 0h-2v-20h2zm2-22h-17a1 1 0 0 0 -1 1v3h-14v-10h32zm0-8h-20v-8h20z"/></g></svg>