<svg height="512" viewBox="0 0 48 60" width="512" xmlns="http://www.w3.org/2000/svg"><g id="Page-1" fill="none" fill-rule="evenodd"><g id="011---Maple-Location" fill-rule="nonzero" transform="translate(0 -1)"><path id="Shape" d="m46.738 28.829c-2.29 16.78-18.926 28.826-22.185 31-.332598.2235339-.767402.2235339-1.1 0-3.496-2.329-22.453-16.029-22.453-34.829-.00108943-6.1755712 2.48132916-12.0921442 6.88855502-16.41811699 4.40722588-4.3259728 10.36896318-6.69787644 16.54344498-6.58188301 13.906.259 24.188 13.048 22.306 26.829z" fill="#f44335"/><path id="Shape" d="m24.432 2c-.646-.012-1.284.01-1.917.05 13.352.88 23.055 13.355 21.223 26.775-2.12 15.531-16.521 27-21.238 30.347.382.271.707.494.95.656.332598.2235339.767402.2235339 1.1 0 3.259-2.175 19.9-14.221 22.185-31 1.885-13.78-8.397-26.569-22.303-26.828z" fill="#c81e1e"/><path id="Shape" d="m18 48 6 6 6-6z" fill="#f5f5f5"/><circle id="Oval" cx="24" cy="25" fill="#f5f5f5" r="19"/><path id="Shape" d="m24 6c-.506 0-1 .037-1.5.076 9.8781364.77398056 17.4992499 9.0155882 17.4992499 18.924s-7.6211135 18.1500194-17.4992499 18.924c.5.039.994.076 1.5.076 10.4934102 0 19-8.5065898 19-19s-8.5065898-19-19-19z" fill="#cfd8dc"/><path id="Shape" d="m24 33-7.212 1.589c-.0948001.0180686-.1919723-.0164262-.2541612-.0902237s-.0797142-.1754105-.0458388-.2657763c.136-.378.268-.75.394-1.123.089-.259.184-.512.273-.771.137-.389.111-.5-.21-.767-1.6773333-1.392-3.3523333-2.786-5.025-4.182-.605-.5-1.2-1-1.808-1.5-.168-.134-.142-.188.037-.269.431-.2.851-.405 1.277-.61.157063-.0456988.2850861-.159887.348372-.3107249.0632859-.1508378.0550644-.3221892-.022372-.4662751l-1.22-3.88c-.0298112-.0892-.010303-.1875118.0513086-.2585705.0616117-.0710588.1561673-.1043006.2486914-.0874295.389.081.768.168 1.151.249.8.172 1.6.35 2.4.528.1352953.054282.287543.0468147.4168769-.0204467.1293339-.0672613.2228727-.1876176.2561231-.3295533.226-.535.452-1.069.668-1.614.073-.178.11-.221.263-.054.956 1.069 1.923 2.126 2.891 3.189.036.044.073.081.11.125.1489954.1825391.4052128.2362823.615.129.2087704-.1179631.310575-.3627889.247-.594-.074-.426-.158-.852-.237-1.278-.252-1.318-.751-3.93-1.2-6.273-.0217923-.1019031.0186368-.2070621.1030811-.2681219.0844443-.0610597.1969757-.0665028.2869189-.0138781.916.547 1.717 1.023 1.923 1.142.1266227.1081897.2996041.1444936.4590391.0963394.1594349-.0481542.2833985-.1741446.3289609-.3343394.494-.994 1.421-2.874 2.243-4.544.042756-.0899171.1334351-.1472074.233-.1472074s.190244.0572903.233.1472074c.822 1.67 1.749 3.55 2.243 4.544.0455624.1601948.169526.2861852.3289609.3343394.159435.0481542.3324164.0118503.4590391-.0963394.206-.119 1.007-.595 1.923-1.142.0899432-.0526247.2024746-.0471816.2869189.0138781.0844443.0610598.1248734.1662188.1030811.2681219-.447 2.343-.946 4.955-1.2 6.273-.079.426-.163.852-.237 1.278-.063575.2312111.0382296.4760369.247.594.2106189.1128357.4716382.0608832.623-.124.037-.044.074-.081.11-.125.968-1.063 1.935-2.12 2.891-3.189.153-.167.19-.124.263.054.216.545.442 1.079.668 1.614.0332504.1419357.1267892.262292.2561231.3295533.1293339.0672614.2815816.0747287.4168769.0204467.8-.178 1.6-.356 2.4-.528.383-.081.762-.168 1.151-.249.0925241-.0168711.1870797.0163707.2486914.0874295.0616116.0710587.0811198.1693705.0513086.2585705l-1.22 3.88c-.0774364.1440859-.0856579.3154373-.022372.4662751.0632859.1508379.191309.2650261.348372.3107249.426.205.846.415 1.277.61.179.081.2.135.037.269-.61.491-1.2 1-1.808 1.5-1.6706667 1.3933333-3.3456667 2.7873333-5.025 4.182-.321.265-.347.378-.21.767.089.259.184.512.273.771.126.373.258.745.394 1.123.0338754.0903658.0163501.1919788-.0458388.2657763s-.1593611.1082923-.2541612.0902237z" fill="#f44335"/><path id="Shape" d="m23.476 14.692c.0455624.1601948.169526.2861852.3289609.3343394.159435.0481542.3324164.0118503.4590391-.0963394.2-.113.938-.554 1.8-1.068-.511-1.034-1.2-2.433-1.831-3.714-.042756-.0899171-.1334351-.1472074-.233-.1472074s-.190244.0572903-.233.1472074c-.419.852-.867 1.752-1.267 2.572.387.78.734 1.485.976 1.972z" fill="#c81e1e"/><path id="Shape" d="m26.463 14.667c-.415 2.177-.853 4.469-1.084 5.675-.079.427-.163.853-.237 1.279-.063575.2312111.0382296.4760369.247.594.2087824.1051049.462524.0515326.611-.129.037-.044.074-.081.11-.125.829-.911 1.656-1.819 2.478-2.733.269-1.408.642-3.36.985-5.158.0217923-.1019031-.0186368-.2070621-.1030811-.2681219-.0844443-.0610597-.1969757-.0665028-.2869189-.0138781-.916.547-1.717 1.023-1.923 1.142-.1266227.1081897-.2996041.1444936-.4590391.0963394-.1594349-.0481542-.2833985-.1741446-.3289609-.3343394z" fill="#c81e1e"/><path id="Shape" d="m37.85 25.626c-.431-.2-.851-.405-1.277-.61-.157063-.0456988-.2850861-.159887-.348372-.3107249-.0632859-.1508378-.0550644-.3221892.022372-.4662751l1.22-3.88c.0298112-.0892.010303-.1875118-.0513086-.2585705-.0616117-.0710588-.1561673-.1043006-.2486914-.0874295-.389.081-.768.168-1.151.249-.541.116-1.084.237-1.626.358l-1.138 3.619c-.0774364.1440859-.0856579.3154373-.022372.4662751.0632859.1508379.191309.2650261.348372.3107249.426.205.846.415 1.277.61.179.081.2.134.037.269-.61.491-1.2 1-1.808 1.5-1.6706667 1.392-3.3456667 2.786-5.025 4.182-.321.265-.347.378-.21.767.089.259.184.512.273.771.1.287.2.575.3.864l2.792.615c.0948001.0180686.1919723-.0164262.2541612-.0902237s.0797142-.1754105.0458388-.2657763c-.136-.378-.268-.75-.394-1.123-.089-.259-.184-.512-.273-.771-.137-.389-.111-.5.21-.767 1.6773333-1.392 3.3523333-2.786 5.025-4.182.6-.5 1.2-1 1.808-1.5.165-.135.139-.188-.04-.269z" fill="#c81e1e"/><g fill="#000"><path id="Shape" d="m22.9 60.665c.6695052.447267 1.5424948.447267 2.212 0 2.06-1.375 20.2-13.948 22.621-31.7.9655647-7.0689183-1.1350827-14.2135939-5.773-19.635-4.3554186-5.18075348-10.7426056-8.21931814-17.51-8.33-6.4428032-.1208239-12.6635432 2.35430025-17.26221665 6.86833554-4.59867345 4.51403526-7.18891617 10.68772846-7.18778335 17.13166446 0 19.814 20.552 34.1 22.9 35.665zm-14.312-51.365c4.1037304-4.05296262 9.6442627-6.31777921 15.412-6.3h.416c6.1944309.10412867 12.0397458 2.88762931 16.025 7.631 4.2650628 4.9880827 6.1961008 11.5605982 5.307 18.063-2.305 16.882-19.767 28.98-21.743 30.306-2.252-1.5-22.005-15.226-22.005-34-.01903517-5.9092103 2.35792444-11.5737923 6.588-15.7z"/><path id="Shape" d="m30 47h-12c-.4043959.0000863-.7689341.2437275-.923678.6173454-.1547439.373618-.0692299.8036603.216678 1.0896546l6 6c.3904999.3903819 1.0235001.3903819 1.414 0l6-6c.2859079-.2859943.3714219-.7160366.216678-1.0896546-.1547439-.3736179-.5192821-.6172591-.923678-.6173454zm-6 5.586-3.586-3.586h7.172z"/><path id="Shape" d="m44 25c0-11.045695-8.954305-20-20-20s-20 8.954305-20 20 8.954305 20 20 20c11.0404407-.0126747 19.9873253-8.9595593 20-20zm-38 0c0-9.9411255 8.0588745-18 18-18s18 8.0588745 18 18-8.0588745 18-18 18c-9.9363282-.0115721-17.98842786-8.0636718-18-18z"/><path id="Shape" d="m25 39v-4.756l6 1.323c.4445229.0957677.9059881-.0574157 1.205-.4.3058792-.3492558.3988485-.8366753.243-1.274-.135-.372-.264-.737-.39-1.109l-.2-.579c1.504-1.2486667 3.007-2.4993333 4.509-3.752l1.072-.891c.357-.3.714-.6 1.074-.886.3469599-.2337196.532532-.6430637.4796546-1.0580457-.0528774-.4149819-.3351713-.7647101-.7296546-.9039543-.3-.137-.6-.283-.9-.429l-.067-.033 1.127-3.585c.1395912-.4290928.0404403-.900045-.2603095-1.2364315-.3007497-.3363865-.7577074-.487438-1.1996905-.3965685l-1.158.25c-.686.148-1.3773333.2996667-2.074.455-.18-.424-.358-.851-.533-1.293-.1201629-.396898-.4533239-.6924875-.8617073-.7645303-.4083833-.0720428-.8225761.0917062-1.0712927.4235303-.6.6746667-1.207 1.346-1.821 2.014l1.12-5.861c.0963548-.4885607-.1035954-.9881027-.5104402-1.2752491-.4068448-.2871465-.9445055-.3082018-1.3725598-.0537509l-1.512.9c-.519-1.049-1.317-2.665-2.033-4.121-.2107079-.43264678-.6497713-.7071797-1.131-.7071797s-.9202921.27453292-1.131.7071797c-.715 1.455-1.511 3.068-2.033 4.122l-1.51-.9c-.427951-.254939-.9657757-.2345254-1.3731705.0521198s-.6082528.7859729-.5128295 1.2748802l1.121 5.863c-.61-.671-1.219-1.342-1.828-2.022-.2541578-.3209039-.6617676-.4795887-1.066-.415-.4077766.0818848-.7389853.3786326-.865.775-.166.419-.338.833-.528 1.282-.6913333-.154-1.384-.3063333-2.078-.457l-1.148-.247c-.4410318-.0929746-.8982527.0553518-1.20071505.3895222-.30246232.3341705-.40462269.8038671-.26828495 1.2334778l1.129 3.594-.066.032c-.3.146-.6.292-.906.43-.39310907.1397153-.6742811.4885769-.72730197.9023932-.05302087.4138162.13111556.8222962.47630197 1.0566068.363.292.72.59 1.077.888l1.072.891 4.508 3.754-.206.583c-.124.366-.253.731-.391 1.111-.1525534.4354659-.0585283.9193509.246 1.266.3012277.3437728.7653227.4969395 1.212.4l6-1.321v4.754c0 .5522847.4477153 1 1 1s1-.4477153 1-1zm-7.133-5.673.233-.656c.3072991-.6651226.0891325-1.4549195-.516-1.868-1.558-1.294-3.1143333-2.5893333-4.669-3.886l-1.072-.891-.076-.064.1-.048c.7722144-.3186247 1.1461178-1.1977429.84-1.975l-.843-2.681c.768.166 1.541.3363333 2.319.511.7755945.2115488 1.5800697-.2259727 1.824-.992.048-.112.1-.225.143-.338.4813333.5333333.964 1.0643333 1.448 1.593l.605.667c.011.012.074.082.086.093.4608947.4996795 1.2019603.6231904 1.8.3.591762-.3168851.9009459-.9883491.757-1.644-.049-.283-.1-.566-.156-.849l-.975-5.115.511.3c.3667313.2531532.8283024.326809 1.2556083.2003653s.7744715-.4394121.9443917-.8513653c.364-.732.962-1.944 1.58-3.2.618 1.255 1.217 2.468 1.582 3.2.1801427.4060146.5262171.7149315.95.848.4194337.1136653.8674195.0434857 1.232-.193.085-.049.271-.159.524-.309l-.982 5.121c-.053.284-.106.568-.15.826-.1523354.6657117.1592416 1.3510991.761 1.674.5966668.3160472 1.3314694.1894705 1.788-.308.011-.011.132-.146.143-.158l.548-.6c.484-.5333333.9666667-1.0643333 1.448-1.593.054.129.109.259.166.393.2587047.743394 1.054025 1.1542363 1.81.935.77-.172 1.544-.344 2.31-.509l-.843 2.68c-.3063014.7800163.0704982 1.6614423.846 1.979l.094.045-.076.064-1.072.891c-1.5533333 1.294-3.109 2.5886667-4.667 3.884-.6045412.4115014-.8242242 1.1989804-.52 1.864l.235.662-5.918-1.3h-.006c-.1469377-.0310781-.2989537-.0290285-.445.006z"/></g></g></g></svg>