<svg height="511pt" viewBox="1 0 511.999 511" width="511pt" xmlns="http://www.w3.org/2000/svg"><path d="m89.125 220.972656h-32.152344l-.003906 281.398438h398.058594v-281.394532l-285.9375-.003906zm0 0" fill="#e8e7e9"/><path d="m169.089844 220.972656h318.574218c7.917969 0 14.335938-6.417968 14.335938-14.335937v-26.308594c0-7.914063-6.417969-14.335937-14.335938-14.335937h-463.328124c-7.917969 0-14.335938 6.417968-14.335938 14.335937v26.308594c0 7.917969 6.417969 14.335937 14.335938 14.335937zm0 0" fill="#e8e7e9"/><path d="m348.191406 165.996094h-182.382812c-12.320313 0-22.308594-9.988282-22.308594-22.308594v-110.882812c0-12.316407 9.988281-22.304688 22.308594-22.304688h182.382812c12.320313 0 22.304688 9.988281 22.304688 22.304688v110.882812c0 12.320312-9.984375 22.308594-22.304688 22.308594zm0 0" fill="#c6c4c8"/><path d="m144.804688 329.59375h111.195312v172.777344h-111.195312zm0 0" fill="#79b2ff"/><path d="m256 329.59375h111.195312v172.78125h-111.195312zm0 0" fill="#79b2ff"/><path d="m257.910156 45.003906 15.425782 27.484375 30.902343 6.171875-21.375 23.160156 3.679688 31.300782-28.632813-13.171875-28.628906 13.171875 3.679688-31.300782-21.375-23.160156 30.90625-6.171875zm0 0" fill="#ffc15a"/><path d="m487.664062 155.996094h-109.609374c1.570312-3.796875 2.441406-7.949219 2.441406-12.304688v-110.886718c0-17.8125-14.492188-32.304688-32.304688-32.304688h-182.382812c-17.8125 0-32.304688 14.492188-32.304688 32.304688v110.882812c0 4.355469.871094 8.511719 2.4375 12.308594h-111.605468c-13.417969 0-24.335938 10.914062-24.335938 24.335937v26.308594c0 13.417969 10.917969 24.335937 24.335938 24.335937h22.632812v271.394532c0 5.523437 4.476562 10 10 10l276.179688.003906h34.046874.003907 87.828125c2.652344 0 5.199218-1.054688 7.074218-2.929688s2.925782-4.417968 2.925782-7.070312v-271.398438h22.636718c13.417969 0 24.335938-10.917968 24.335938-24.335937v-26.308594c0-13.417969-10.917969-24.335937-24.335938-24.335937zm-334.164062-123.191406c0-6.785157 5.523438-12.304688 12.308594-12.304688h182.382812c6.785156 0 12.304688 5.519531 12.304688 12.304688v110.882812c0 6.785156-5.519532 12.308594-12.304688 12.308594h-182.382812c-6.785156 0-12.304688-5.523438-12.304688-12.308594v-110.882812zm203.691406 459.566406h-91.191406v-152.777344h91.191406zm-111.191406-76.386719v76.386719h-91.191406v-152.777344h91.191406zm246-209.34375c0 2.390625-1.945312 4.335937-4.335938 4.335937l-318.574218-.003906c-5.523438 0-10 4.480469-10 10 0 5.523438 4.476562 10 10 10l275.941406.003906v261.394532h-67.835938v-162.777344c0-5.519531-4.476562-10-10-10h-222.390624c-5.523438 0-10 4.480469-10 10v162.777344h-67.835938v-261.394532h22.152344c5.523437 0 10-4.480468 10-10 0-5.523437-4.476563-10-10-10h-64.785156c-2.390626 0-4.335938-1.945312-4.335938-4.335937v-26.308594c0-2.390625 1.945312-4.335937 4.335938-4.335937h463.328124c2.390626 0 4.335938 1.945312 4.335938 4.335937zm0 0"/><path d="m213.359375 416.804688c1.578125 3.851562 5.5625 6.367187 9.710937 6.167968 4.070313-.195312 7.675782-2.925781 8.988282-6.777344 1.328125-3.894531.0625-8.324218-3.117188-10.9375-3.355468-2.765624-8.277344-3.011718-11.890625-.59375-3.914062 2.621094-5.503906 7.789063-3.691406 12.140626zm0 0"/><path d="m278.828125 416.804688c1.578125 3.847656 5.574219 6.386718 9.730469 6.167968 4.121094-.21875 7.757812-3.003906 9.019531-6.929687 1.28125-3.976563-.113281-8.441407-3.421875-10.992188-3.355469-2.582031-8.117188-2.730469-11.636719-.382812-3.917969 2.609375-5.5 7.789062-3.691406 12.136719zm0 0"/><path d="m223.847656 282.488281 25.625 22.375c3.703125 3.238281 9.429688 3.238281 13.136719.015625l25.75-22.375c4.167969-3.625 4.613281-9.9375.988281-14.109375-3.621094-4.167969-9.9375-4.609375-14.105468-.988281l-9.191407 7.988281v-23.605469c0-5.523437-4.476562-10-10-10-5.523437 0-10 4.476563-10 10v23.535157l-9.046875-7.902344c-4.160156-3.628906-10.476562-3.207031-14.109375.957031-3.632812 4.15625-3.207031 10.472656.953125 14.109375zm0 0"/><path d="m138.109375 217.148438c-1.660156-3.988282-5.816406-6.527344-10.125-6.136719-4.140625.375-7.679687 3.371093-8.765625 7.375-1.097656 4.058593.566406 8.503906 4.042969 10.859375 3.320312 2.246094 7.746093 2.277344 11.101562.085937 3.980469-2.601562 5.542969-7.804687 3.746094-12.183593zm0 0"/><path d="m222.492188 105.222656-3.144532 26.730469c-.421875 3.589844 1.128906 7.132813 4.054688 9.257813 1.738281 1.261718 3.800781 1.910156 5.878906 1.910156 1.417969 0 2.847656-.304688 4.179688-.917969l24.449218-11.246094 24.453125 11.246094c3.285157 1.511719 7.132813 1.132813 10.058594-.996094 2.925781-2.125 4.476563-5.664062 4.054687-9.253906l-3.144531-26.730469 18.253907-19.78125c2.453124-2.65625 3.28125-6.433594 2.164062-9.871094-1.117188-3.441406-4.007812-6.007812-7.554688-6.71875l-26.390624-5.269531-13.171876-23.472656c-1.769531-3.152344-5.101562-5.105469-8.71875-5.105469-3.617187 0-6.953124 1.953125-8.722656 5.105469l-13.167968 23.472656-26.394532 5.269531c-3.546875.710938-6.4375 3.277344-7.554687 6.71875-1.113281 3.4375-.289063 7.214844 2.164062 9.871094zm21.957031-22.929687c2.863281-.570313 5.332031-2.367188 6.765625-4.914063l6.699218-11.9375 6.699219 11.9375c1.429688 2.546875 3.898438 4.34375 6.761719 4.914063l13.429688 2.683593-9.289063 10.0625c-1.980469 2.144532-2.921875 5.050782-2.582031 7.949219l1.597656 13.597657-12.4375-5.722657c-2.65625-1.21875-5.707031-1.21875-8.359375 0l-12.4375 5.722657 1.597656-13.597657c.339844-2.898437-.605469-5.804687-2.585937-7.949219l-9.285156-10.0625zm0 0"/></svg>