<svg height="512" viewBox="0 0 58 58" width="512" xmlns="http://www.w3.org/2000/svg"><g id="Page-1" fill="none" fill-rule="evenodd"><g id="040---Tennis" fill-rule="nonzero" transform="translate(0 -1)"><path id="Shape" d="m58 50c.0046623 2.6533654-1.1717789 5.1711696-3.21 6.87-.2039991.1782815-.4176555.3452006-.64.5-.3305741.243683-.6819259.4578403-1.05.64-.2242548.1186414-.4545703.2254544-.69.32-2.1855784.8932998-4.6344216.8932998-6.82 0-.24-.1-.47-.21-.69-.32-.3679612-.1881099-.722176-.4019754-1.06-.64-.2207979-.1489556-.4312774-.3126619-.63-.49-2.0346552-1.7037426-3.2101377-4.2212177-3.2101377-6.875s1.1754825-5.1712574 3.2101377-6.875c.2039991-.1782815.4176555-.3452006.64-.5.3307884-.2404751.682151-.4512926 1.05-.63.2240879-.1219573.4544027-.2321078.69-.33 2.1855784-.8932998 4.6344216-.8932998 6.82 0 .24.1.47.21.69.32.3679612.1881099.722176.4019754 1.06.64.2207979.1489556.4312774.3126619.63.49 2.0350469 1.7055814 3.2104085 4.2247366 3.21 6.88z" fill="#4fba6f"/><path id="Shape" d="m58 50c.0046623 2.6533654-1.1717789 5.1711696-3.21 6.87-.2039991.1782815-.4176555.3452006-.64.5-.3305741.243683-.6819259.4578403-1.05.64-.2242548.1186414-.4545703.2254544-.69.32-2.1855784.8932998-4.6344216.8932998-6.82 0-.24-.1-.47-.21-.69-.32-.3679612-.1881099-.722176-.4019754-1.06-.64-.2207979-.1489556-.4312774-.3126619-.63-.49-.7447351-.629208-1.3858989-1.3716081-1.9-2.2.19.12.39.23.59.33.22.11.45.22.69.32 2.1855784.8932998 4.6344216.8932998 6.82 0 .2354297-.0945456.4657452-.2013586.69-.32.3680741-.1821597.7194259-.396317 1.05-.64.2223445-.1547994.4360009-.3217185.64-.5 3.4010025-2.8512083 4.2084397-7.7595761 1.9-11.55.16.1.32.2.47.31.2207979.1489556.4312774.3126619.63.49 2.0350469 1.7055814 3.2104085 4.2247366 3.21 6.88z" fill="#24ae5f"/><path id="Shape" d="m53.858 16.143-.489-.49.369-.369c.2524081-.252944.3506988-.6213321.2578469-.966396-.0928518-.3450639-.3627399-.6143801-.708-.7065-.34526-.0921198-.7134388.006952-.9658469.259896l-.367.368-2.891-2.89 1.875-1.875c.2599566-.25107447.3642126-.62287789.2726972-.97250732-.0915155-.34962944-.3645604-.6226744-.7141899-.71418984-.3496294-.09151544-.7214328.01274058-.9725073.27269716l-1.875 1.875-2.89-2.89.369-.369c.3789722-.39237889.3735524-1.01608478-.0121814-1.40181858-.3857338-.38573379-1.0094397-.39115363-1.4018186-.01218142l-.369.369-.49-.489c-.2527654-.25258677-.6210837-.35113784-.966213-.25852996-.3451292.09260788-.6146361.36230535-.707.7075-.0923638.34519465.0064476.71344319.259213.96602996l.489.489-2.889 2.889-2.935-2.935c-.3907415-.39046532-1.0240347-.39024146-1.4145.0005s-.3902415 1.02403468.0005 1.4145l2.935 2.934-2.89 2.89-3.6-3.6c-.2510745-.2599566-.6228779-.3642126-.9725073-.2726972-.3496295.0915155-.6226744.3645604-.7141899.7141899-.0915154.3496294.0127406.7214328.2726972.9725073l3.6 3.6-2.89 2.889-2.934-2.933c-.2510745-.2599566-.6228779-.3642126-.9725073-.2726972-.3496295.0915155-.6226744.3645604-.7141899.7141899-.0915154.3496294.0127406.7214328.2726972.9725073l2.934 2.935-2.89 2.89-.489-.49c-.2510745-.2599566-.6228779-.3642126-.9725073-.2726972-.3496295.0915155-.6226744.3645604-.7141899.7141899-.0915154.3496294.0127406.7214328.2726972.9725073l.489.49-.369.369c-.2599566.2510745-.3642126.6228779-.2726972.9725073.0915155.3496295.3645604.6226744.7141899.7141899.3496294.0915154.7214328-.0127406.9725073-.2726972l.369-.369 2.89 2.89-1.875 1.875c-.2599566.2510745-.3642126.6228779-.2726972.9725073.0915155.3496295.3645604.6226744.7141899.7141899.3496294.0915154.7214328-.0127406.9725073-.2726972l1.875-1.875 2.89 2.89-.37.37c-.2524081.252944-.3506988.6213321-.2578469.966396.0928518.3450639.3627399.6143801.708.7065.34526.0921198.7134388-.006952.9658469-.259896l.368-.368.49.489c.3923789.3789722 1.0160848.3735524 1.4018186-.0121814s.3911536-1.0094397.0121814-1.4018186l-.49-.489 2.89-2.891 2.935 2.935c.3907415.3904653 1.0240347.3902414 1.4145-.0005.3904653-.3907415.3902414-1.0240347-.0005-1.4145l-2.934-2.934 2.889-2.89 3.6 3.6c.2510745.2599566.6228779.3642126.9725073.2726972.3496295-.0915155.6226744-.3645604.7141899-.7141899.0915154-.3496294-.0127406-.7214328-.2726972-.9725073l-3.6-3.6 2.891-2.89 2.934 2.934c.3904653.3907414 1.0237585.3909653 1.4145.0005.3907414-.3904653.3909653-1.0237585.0005-1.4145l-2.934-2.934 2.89-2.89.489.49c.3907415.3904653 1.0240347.3902414 1.4145-.0005.3904653-.3907415.3902414-1.0240347-.0005-1.4145zm-10.513-7.684 2.891 2.891-2.89 2.89-2.89-2.891zm-4.3 4.3 2.89 2.891-2.89 2.89-2.89-2.89zm-4.3 4.305 2.89 2.89-2.89 2.89-2.89-2.891zm-7.194 7.194 2.89-2.89 2.89 2.89-2.89 2.89zm7.194 7.194-2.89-2.89 2.89-2.89 2.89 2.89zm4.3-4.3-2.89-2.89 2.89-2.89 2.89 2.89zm4.3-4.3-2.89-2.89 2.89-2.89 2.89 2.889zm4.3-4.3-2.89-2.889 2.89-2.89 2.89 2.889z" fill="#bdc3c7"/><path id="Shape" d="m53.68 5.32c-6.66-6.65-18.61-5.5-26.69 2.59-1.3767709 1.36434114-2.5853602 2.8885064-3.6 4.54-2.8 4.55-3.33 9.95-5.22 14.88-1.933174 4.9929466-4.4973322 9.7179877-7.63 14.06l7.07 7.07c1.8576432-1.3328911 3.7835969-2.5679048 5.77-3.7 4.5995322-2.6957032 9.5688704-4.7036527 14.75-5.96 4.8837796-.9679375 9.3840928-3.3257405 12.96-6.79 8.09-8.08 9.24-20.03 2.59-26.69zm-27.63 32.52c-1.68.78-3.04 1.54-4.56 2.29-.751733.3713454-1.6565284.2222771-2.2494028-.3705972-.5928743-.5928744-.7419426-1.4976698-.3705972-2.2494028.75-1.52 1.51-2.88 2.29-4.56.1459361-.3250622.4538144-.5479154.8081975-.585002.354383-.0370867.7017291.1171966.9118025.405002.9149584 1.3016375 2.0483625 2.4350416 3.35 3.35.2878054.2100734.4420887.5574195.405002.9118025-.0370866.3543831-.2599398.6622614-.585002.8081975zm21.6-9.27c-6.18 6.18-15.04 7.33-19.8 2.58s-3.6-13.62 2.58-19.8 15.05-7.34 19.8-2.58 3.6 13.62-2.58 19.8z" fill="#e64c3c"/><path id="Shape" d="m35.405 35.061c-3.071196.0832872-6.0473217-1.0695517-8.261-3.2-5.134-5.144-3.976-14.66 2.579-21.215 3.388191-3.55845759 8.0382355-5.64413669 12.949-5.808h.008c3.0756198-.08652412 6.055021 1.07702262 8.258 3.225 2.1472191 2.2033969 3.3103296 5.1826048 3.224 8.258-.1593043 4.9122076-2.242285 9.5651556-5.8 12.956-3.3964309 3.5482238-8.047802 5.6245942-12.957 5.784zm7.267-28.223c-4.3800192.16228397-8.5216318 2.03615272-11.535 5.219-5.776 5.776-6.933 14.024-2.579 18.386s12.609 3.195 18.385-2.58c3.1844529-3.0147072 5.0584816-7.1588277 5.219-11.541.0813123-2.5440242-.8702312-5.0126987-2.638-6.844-1.8310295-1.76904658-4.300286-2.72139681-6.845-2.64z" fill="#c03a2b"/><path id="Shape" d="m17.61 48.46-7.54 7.54-1.41 1.41-.71.71c-1.17127019 1.1698135-3.06872981 1.1698135-4.24 0l-2.83-2.83c-1.16981351-1.1712702-1.16981351-3.0687298 0-4.24l5.42-5.42 1.42-1.41 2.82-2.83z" fill="#464f5d"/><path id="Shape" d="m11.96 49.87c-.3943361.3867403-1.0256639.3867403-1.42 0l-4.24-4.24 1.42-1.41 4.24 4.24c.3877236.3900375.3877236 1.0199625 0 1.41z" fill="#393f4a"/><path id="Shape" d="m10.07 56-1.41 1.41-4.25-4.24c-.38772359-.3900375-.38772359-1.0199625 0-1.41.39300794-.3899779 1.02699206-.3899779 1.42 0z" fill="#393f4a"/><path id="Shape" d="m17 15c-.2651948-.0000566-.5195073-.1054506-.707-.293l-11-11c-.37897221-.39237889-.37355237-1.01608478.01218142-1.40181858.3857338-.38573379 1.00943969-.39115363 1.40181858-.01218142l11 11c.2859079.2859943.3714219.7160366.216678 1.0896546-.1547439.3736179-.5192821.6172591-.923678.6173454z" fill="#95a5a5"/><path id="Shape" d="m15 21c-.2651948-.0000566-.5195073-.1054506-.707-.293l-11-11c-.37897221-.39237889-.37355237-1.01608478.01218142-1.40181858.3857338-.38573379 1.00943969-.39115363 1.40181858-.01218142l11 11c.2859079.2859943.3714219.7160366.216678 1.0896546-.1547439.3736179-.5192821.6172591-.923678.6173454z" fill="#95a5a5"/><path id="Shape" d="m46.16 50c.0166473 2.0129809-.1879132 4.0216982-.61 5.99-.6692479-.0382964-1.3327599-.1455306-1.98-.32.4163745-1.8606444.6143781-3.7634925.59-5.67.0683725-2.3269386-.2527191-4.6489378-.95-6.87.2039991-.1782815.4176555-.3452006.64-.5.3307884-.2404751.682151-.4512926 1.05-.63.9145687 2.5649226 1.3418994 5.2781337 1.26 8z" fill="#ecf0f1"/><path id="Shape" d="m54.5 44.05c-.4693651 1.9476822-.6911162 3.9468022-.66 5.95 0 .47.01.93.03 1.36-.4755884.8559665-1.0907058 1.6265531-1.82 2.28-.1438283-1.2079452-.2139582-2.4235286-.21-3.64-.085164-2.7253362.3422435-5.4424266 1.26-8.01.2.1.4.21.59.33.16.1.32.2.47.31.2207979.1489556.4312774.3126619.63.49-.1.26-.19.57-.29.93z" fill="#ecf0f1"/><g fill="#bdc3c7"><path id="Shape" d="m54.79 56.87c-.2039991.1782815-.4176555.3452006-.64.5-.3305741.243683-.6819259.4578403-1.05.64-.5607224-1.3978314-.9144497-2.8700105-1.05-4.37.7292942-.6534469 1.3444116-1.4240335 1.82-2.28.0361348 1.8717214.3460879 3.7280708.92 5.51z"/><path id="Shape" d="m45.55 55.99c-.1458469.6941009-.3636921 1.3710969-.65 2.02-.3679612-.1881099-.722176-.4019754-1.06-.64-.2207979-.1489556-.4312774-.3126619-.63-.49.140571-.3969253.2607283-.8007873.36-1.21.6472401.1744694 1.3107521.2817036 1.98.32z"/></g></g></g></svg>